[IMG]http://i1015.photobucket.com/albums/af279/tequila-bob/young%20frankenstein/youngfrank.jpg[/IMG]

Young Frankenstein 1974 BluRay 1080p DTS x264

Encoded by Tequila-Bob a.k.a. bobnjeff
source NTSC BluRay Disc

Release Date:15 December 1974 (USA) 
 
http://www.imdb.com/title/tt0072431/

Genres:Comedy | Sci-Fi

Taglines:The scariest comedy of all time! 

Rated: PG (Parental Guidance Suggested) 

Storyline
A young neurosurgeon (Gene Wilder) inherits the castle of his grandfather, the famous Dr. Victor von Frankenstein. In the castle he finds a funny hunchback called Igor, a pretty lab assistant named Inga and the old housekeeper, frau Blucher -iiiiihhh!-. Young Frankenstein believes that the work of his grandfather is only crap, but when he discovers the book where the mad doctor described his reanimation experiment, he suddenly changes his mind... 




Cast
Cast overview, first billed only: 
  Gene Wilder  ...  Dr. Frankenstein  
  Peter Boyle  ...  The Monster  
  Marty Feldman  ...  Igor  
  Cloris Leachman  ...  Frau Blücher  
  Teri Garr  ...  Inga  
  Kenneth Mars  ...  Inspector Kemp  
  Richard Haydn  ...  Herr Falkstein  
  Liam Dunn  ...  Mr. Hilltop  
  Danny Goldman  ...  Medical Student  
  Oscar Beregi Jr.  ...  Sadistic Jailor (as Oscar Beregi)  
  Arthur Malet  ...  Village Elder  
  Anne Beesley  ...  Little Girl  
  Monte Landis  ...  Gravedigger  
  Rusty Blitz  ...  Gravedigger  
  John Madison  ...  A Villager  




Format : Matroska 
File size : 8.05 GiB 
Duration : 1h 45mn 
Overall bit rate : 10.9 Mbps 
Encoded date : UTC 2010-10-14 02:39:11 
Writing application : mkvmerge v4.3.0 

Codec ID : V_MPEG4/ISO/AVC 
Duration : 1h 45mn 
Bit rate : 9 267 Kbps 
Width : 1 920 pixels 
Height : 1 040 pixels 
Display aspect ratio : 16:9 
Frame rate : 23.976 fps 
Color space : YUV 
Chroma subsampling : 4:2:0 
Bit depth : 8 bits 
Scan type : Progressive 
Bits/(Pixel*Frame) : 0.194 
Stream size : 6.78 GiB (84%) 

Codec ID : A_DTS 
Duration : 1h 45mn 
Bit rate mode : Constant 
Bit rate : 1 510 Kbps 
Channel(s) : 6 channels 
Channel positions : Front: L C R, Side: L R, LFE 
Sampling rate : 48.0 KHz 
Bit depth : 24 bits 
Video delay : 10ms 
Stream size : 1.11 GiB (14%)

Text #1 
Language/String : English

Text #2 
Language/String : Spanish 

Text #3 
Language/String : Chinese 

Text #4 
Language/String : Chinese 

Text #5  
Language/String : French 

Text #6  
Language/String : French 

Text #7  
Language/String : Spanish 

Text #8 
Language/String : Spanish 

Text #9 
Language/String : English 

Menu: Chapters 27

[img]http://torrent-stats.info/6d2b/679fd100.png[/img]
 
http://photobucket.com/young_frankenstein_tequila-bob  
